<svg width="90" height="91" viewBox="0 0 90 91" fill="none" xmlns="http://www.w3.org/2000/svg">
<g clip-path="url(#clip0_13_17912)">
<path d="M26.3001 36.8149L27.5424 38.2193L26.3001 36.8149ZM67.1121 35.1739L65.8699 36.5783L67.1121 35.1739ZM34.5169 25.4964L35.5768 27.0431C36.0064 26.7486 36.2942 26.2888 36.3713 25.7738C36.4483 25.2587 36.3075 24.7346 35.9828 24.3276L34.5169 25.4964ZM30 19.8319L28.9894 18.2525C28.542 18.5388 28.2371 19.0014 28.1503 19.5253C28.0633 20.0494 28.2028 20.5856 28.5339 21.0009L30 19.8319ZM36.3236 15.7858L37.7895 14.6168C37.1908 13.8661 36.1219 13.6889 35.313 14.2064L36.3236 15.7858ZM40.8403 21.4504L39.3744 22.6193C39.9152 23.2976 40.8506 23.5163 41.6361 23.1482L40.8403 21.4504ZM46.02 19.0226L46.8158 20.7204C47.4743 20.4118 47.895 19.7499 47.895 19.0226H46.02ZM46.02 13.2681L46.0198 11.3931C44.9844 11.3932 44.145 12.2326 44.145 13.2681H46.02ZM54.09 13.2681H55.965C55.965 12.7708 55.7674 12.2939 55.4158 11.9422C55.0641 11.5906 54.5873 11.3931 54.09 11.3931V13.2681ZM54.09 19.0226H52.215C52.215 19.7079 52.5889 20.3385 53.19 20.6676L54.09 19.0226ZM24.375 37.6982L22.7582 38.6475C23.0192 39.0923 23.4519 39.4097 23.9544 39.5254C24.4569 39.6411 24.9848 39.5447 25.4141 39.2589L24.375 37.6982ZM16.875 32.6979L15.0328 32.349C14.9385 32.8468 15.0496 33.3615 15.3408 33.7759C15.6321 34.1904 16.0786 34.4694 16.5788 34.5495L16.875 32.6979ZM18.5541 23.8339L19.0834 22.0352C18.5755 21.8858 18.028 21.9579 17.5762 22.2341C17.1244 22.5103 16.8104 22.9646 16.7119 23.4849L18.5541 23.8339ZM31.875 33.9536L32.5704 35.6948C33.366 35.3771 33.8449 34.5608 33.7343 33.7114L31.875 33.9536ZM59.2206 32.463L60.0083 34.1646L59.2206 32.463ZM43.4169 36.5267L41.7358 35.6963L40.7466 37.6989L42.8904 38.3261L43.4169 36.5267ZM54.8486 24.8646L54.0609 23.163L54.8486 24.8646ZM72.5065 22.26L74.3801 22.329L74.4493 20.451L72.5711 20.3861L72.5065 22.26ZM72.1785 31.1694L72.1138 33.0433L73.9834 33.1078L74.0522 31.2384L72.1785 31.1694ZM52.8799 38.2691L51.2929 37.2707L52.8799 38.2691ZM50.3676 39.1014L49.6333 40.8266L50.3676 39.1014ZM48.2494 56.9383L49.9701 56.1938L48.2494 56.9383ZM47.7369 49.452L49.5431 49.9551L47.7369 49.452ZM25.0577 35.4105C21.2987 38.7356 19.8902 43.2778 20.0494 48.0056C20.2071 52.6961 21.8985 57.6576 24.4359 62.1467C26.9786 66.645 30.4359 70.7856 34.266 73.8212C38.0696 76.8358 42.414 78.8931 46.7061 78.8931V75.1431C43.5776 75.1431 40.038 73.6108 36.5953 70.8823C33.1789 68.1744 30.0274 64.4179 27.7005 60.3013C25.3684 56.1754 23.9293 51.8038 23.7971 47.8794C23.6664 43.9922 24.8087 40.6374 27.5424 38.2193L25.0577 35.4105ZM46.7061 78.8931C50.9873 78.8931 55.443 76.8465 59.3886 73.8167C63.3641 70.764 67.0046 66.5768 69.6731 61.968C74.9168 52.9121 76.8308 41.2671 68.3544 33.7695L65.8699 36.5783C72.2634 42.2336 71.3948 51.5109 66.4279 60.0889C63.9913 64.2971 60.6699 68.1047 57.1046 70.8426C53.5093 73.6033 49.8454 75.1431 46.7061 75.1431V78.8931ZM68.3544 33.7695C67.2782 32.8176 66.4395 32.3228 65.5232 31.8596C64.6393 31.4128 63.8209 31.0562 62.4992 30.2769L60.5944 33.507C62.0556 34.3688 63.0923 34.8326 63.8314 35.2063C64.5383 35.5635 65.0908 35.8892 65.8699 36.5783L68.3544 33.7695ZM44.646 34.9234C41.8526 34.0089 38.2298 33.1159 34.7406 32.916C31.3391 32.721 27.6053 33.1569 25.0577 35.4105L27.5424 38.2193C28.9395 36.9834 31.3838 36.4796 34.5259 36.6598C37.5801 36.8349 40.8664 37.6318 43.479 38.4872L44.646 34.9234ZM35.9828 24.3276L31.4661 18.6629L28.5339 21.0009L33.0508 26.6655L35.9828 24.3276ZM31.0106 21.4112L37.3341 17.3651L35.313 14.2064L28.9894 18.2525L31.0106 21.4112ZM34.8576 16.9547L39.3744 22.6193L42.3064 20.2813L37.7895 14.6168L34.8576 16.9547ZM41.6361 23.1482L46.8158 20.7204L45.2243 17.3249L40.0446 19.7526L41.6361 23.1482ZM47.895 19.0226V13.2681H44.145V19.0226H47.895ZM46.02 15.1431L54.09 15.1431V11.3931L46.0198 11.3931L46.02 15.1431ZM52.215 13.2681V19.0226H55.965V13.2681H52.215ZM54.09 19.0226C53.19 20.6676 53.1896 20.6674 53.1893 20.667C53.1891 20.667 53.1887 20.6668 53.1885 20.6666C53.1881 20.6664 53.1876 20.6663 53.1872 20.6661C53.1864 20.6655 53.1857 20.6651 53.1853 20.6649C53.1842 20.6642 53.1836 20.664 53.1836 20.664C53.1834 20.6638 53.1855 20.6649 53.1893 20.6672C53.1971 20.6717 53.2129 20.6807 53.2356 20.6942C53.2813 20.7212 53.3556 20.766 53.4534 20.8288C53.6496 20.9548 53.9381 21.1509 54.2796 21.4163C54.9677 21.9508 55.8443 22.7453 56.6209 23.7889L59.6291 21.5499C58.599 20.1658 57.4581 19.1368 56.5802 18.4549C56.139 18.1121 55.7574 17.8517 55.4792 17.6731C55.3401 17.5837 55.2261 17.5145 55.1428 17.4653C55.1012 17.4407 55.0673 17.4212 55.0416 17.4066C55.0286 17.3993 55.0179 17.3932 55.0093 17.3884C55.005 17.386 55.0013 17.3839 54.9979 17.3821C54.9964 17.3812 54.9949 17.3804 54.9936 17.3797C54.9928 17.3793 54.9923 17.3789 54.9917 17.3786C54.9913 17.3784 54.9909 17.3782 54.9908 17.3781C54.9904 17.3779 54.9898 17.3777 54.09 19.0226ZM32.7428 31.3783C33.1599 29.8916 33.8959 28.7856 34.5285 28.0509C34.8443 27.6846 35.1293 27.4164 35.3258 27.2468C35.4238 27.162 35.4988 27.1028 35.5434 27.0686C35.5658 27.0516 35.5804 27.0409 35.5862 27.0366C35.5892 27.0345 35.5899 27.0339 35.5884 27.0351C35.5877 27.0356 35.5864 27.0366 35.5843 27.0379C35.5834 27.0384 35.5823 27.0394 35.5811 27.0401C35.5804 27.0405 35.5798 27.0411 35.5791 27.0416C35.5787 27.0418 35.5781 27.0422 35.5779 27.0422C35.5774 27.0428 35.5768 27.0431 34.5169 25.4964C33.4568 23.9498 33.4562 23.9503 33.4556 23.9507C33.4554 23.9509 33.4549 23.9513 33.4543 23.9514C33.4536 23.9522 33.4526 23.9528 33.4517 23.9533C33.4498 23.9546 33.4478 23.9561 33.4455 23.9576C33.4412 23.9606 33.4361 23.9642 33.4305 23.9681C33.4193 23.9762 33.4054 23.9859 33.3893 23.9976C33.3572 24.0208 33.3158 24.0514 33.2659 24.0894C33.1663 24.1656 33.033 24.2719 32.8749 24.4084C32.559 24.6812 32.1396 25.0785 31.6873 25.6037C30.7841 26.6522 29.7304 28.2339 29.1323 30.3653L32.7428 31.3783ZM24.375 37.6982C25.9918 36.7489 25.9914 36.7483 25.9911 36.7476C25.9911 36.7474 25.9905 36.7466 25.9903 36.7463C25.9898 36.7451 25.989 36.7442 25.9884 36.7431C25.9871 36.7408 25.9856 36.7384 25.9839 36.7356C25.9808 36.7301 25.9768 36.7236 25.9723 36.7161C25.9633 36.7011 25.9517 36.6821 25.9374 36.6593C25.9091 36.6139 25.8705 36.5531 25.8216 36.4794C25.7237 36.3321 25.5842 36.1314 25.4023 35.8931C25.0397 35.4176 24.5025 34.7839 23.7857 34.1224C22.3564 32.8033 20.1566 31.3241 17.1712 30.8466L16.5788 34.5495C18.6307 34.8776 20.1808 35.8986 21.2423 36.8783C21.771 37.3659 22.1642 37.8311 22.4207 38.1675C22.5486 38.3349 22.6406 38.4683 22.6973 38.5534C22.7254 38.5959 22.7447 38.6263 22.7548 38.6426C22.7599 38.6507 22.7627 38.6554 22.7633 38.6563C22.7636 38.6567 22.7633 38.6563 22.7623 38.6548C22.7619 38.6541 22.7614 38.6531 22.7606 38.652C22.7603 38.6514 22.7599 38.6507 22.7595 38.6499C22.7593 38.6496 22.7589 38.649 22.7588 38.6488C22.7584 38.6483 22.7582 38.6475 24.375 37.6982ZM18.7173 33.0469L20.3964 24.1828L16.7119 23.4849L15.0328 32.349L18.7173 33.0469ZM18.5541 23.8339C18.0248 25.6326 18.0244 25.6326 18.0241 25.6324C18.0241 25.6324 18.0238 25.6324 18.0237 25.6324C18.0236 25.6324 18.0236 25.6324 18.0238 25.6324C18.0243 25.6326 18.0254 25.6328 18.0273 25.6335C18.0311 25.6346 18.0378 25.6365 18.0474 25.6395C18.0665 25.6453 18.097 25.6545 18.138 25.6673C18.2201 25.6928 18.3444 25.7321 18.5051 25.7852C18.8269 25.8911 19.293 26.0513 19.8574 26.2635C20.9906 26.6897 22.4968 27.3178 24.0158 28.1299C25.5461 28.9479 27.0184 29.9153 28.1333 30.9979C29.2562 32.0884 29.8809 33.1614 30.0158 34.1957L33.7343 33.7114C33.4493 31.5223 32.199 29.7188 30.7457 28.3076C29.2841 26.8883 27.4785 25.7288 25.7837 24.8228C24.0773 23.9106 22.4108 23.2176 21.1776 22.7537C20.5586 22.5208 20.0432 22.3436 19.6791 22.2236C19.4968 22.1634 19.3521 22.1177 19.251 22.0862C19.2004 22.0704 19.1606 22.0584 19.1325 22.0498C19.1184 22.0457 19.1072 22.0423 19.0989 22.0399C19.0948 22.0386 19.0916 22.0376 19.089 22.0369C19.0877 22.0365 19.0866 22.0361 19.0856 22.0358C19.0853 22.0358 19.0847 22.0356 19.0843 22.0356C19.0839 22.0354 19.0834 22.0352 18.5541 23.8339ZM31.1796 32.2123C28.7567 33.18 26.8144 34.1494 25.4704 34.8814C24.798 35.2478 24.2741 35.5551 23.9138 35.7743C23.7336 35.8838 23.5941 35.9713 23.4971 36.033C23.4488 36.0639 23.4109 36.0883 23.3841 36.1059C23.3706 36.1148 23.3597 36.1217 23.3518 36.1269C23.3477 36.1298 23.3445 36.1318 23.3419 36.1337C23.3404 36.1344 23.3393 36.1352 23.3383 36.1359C23.3379 36.1361 23.3374 36.1365 23.337 36.1367C23.3368 36.1369 23.3366 36.1371 23.3364 36.1371C23.3363 36.1373 23.3359 36.1374 24.375 37.6982C25.4141 39.2589 25.4138 39.2591 25.4136 39.2593C25.4136 39.2593 25.4134 39.2595 25.4132 39.2595C25.413 39.2597 25.4128 39.2599 25.4126 39.2599C25.4124 39.2601 25.4123 39.2603 25.4123 39.2603C25.4124 39.2601 25.4132 39.2595 25.4147 39.2586C25.4175 39.2567 25.4231 39.2529 25.4314 39.2477C25.4481 39.2368 25.4753 39.2192 25.5128 39.1952C25.5881 39.1474 25.7049 39.0739 25.8615 38.9786C26.175 38.7881 26.6473 38.5104 27.264 38.1746C28.4981 37.5024 30.3058 36.5994 32.5704 35.6948L31.1796 32.2123ZM54.4671 39.2676C56.1806 36.5438 57.9936 35.0972 60.0083 34.1646L58.4331 30.7614C55.7314 32.0121 53.3749 33.9613 51.2929 37.2707L54.4671 39.2676ZM42.8904 38.3261C45.2168 39.0068 47.9297 40.1016 49.6333 40.8266L51.1018 37.3763C49.3695 36.6388 46.4903 35.4722 43.9434 34.7271L42.8904 38.3261ZM54.0609 23.163C48.5741 25.7027 44.8504 29.3906 41.7358 35.6963L45.0981 37.3569C47.8766 31.7319 51.0105 28.7072 55.6363 26.5661L54.0609 23.163ZM72.5711 20.3861C65.5348 20.1433 59.3494 20.7152 54.0609 23.163L55.6363 26.5661C60.1303 24.486 65.6149 23.8984 72.4418 24.1339L72.5711 20.3861ZM74.0522 31.2384L74.3801 22.329L70.6328 22.191L70.3048 31.1004L74.0522 31.2384ZM60.0083 34.1646C62.4411 33.0386 65.6588 32.8206 72.1138 33.0433L72.2432 29.2956C65.9063 29.0769 61.7966 29.2046 58.4331 30.7614L60.0083 34.1646ZM51.2929 37.2707C51.261 37.3215 51.2134 37.3562 51.1673 37.3718C51.1251 37.386 51.1067 37.3783 51.1018 37.3763L49.6333 40.8266C51.4609 41.6046 53.484 40.8298 54.4671 39.2676L51.2929 37.2707ZM46.5285 57.6829L47.3019 59.4705L50.7437 57.9814L49.9701 56.1938L46.5285 57.6829ZM47.1521 58.8536L47.6771 66.5471L51.4183 66.2919L50.8935 58.5983L47.1521 58.8536ZM49.239 60.5886L57.219 59.6621L56.7866 55.9371L48.8066 56.8635L49.239 60.5886ZM50.7981 37.7938L46.4321 47.2395L49.836 48.8128L54.2019 39.3673L50.7981 37.7938ZM46.3279 47.523L45.9308 48.9488L49.5431 49.9551L49.9403 48.5293L46.3279 47.523ZM47.3616 46.3178L39.2008 50.0083L40.746 53.4251L48.9068 49.7346L47.3616 46.3178ZM40.4033 49.8917L32.2719 47.976L31.4121 51.6261L39.5434 53.5418L40.4033 49.8917ZM38.2298 51.027L35.4568 58.0363L38.9439 59.4158L41.7169 52.4064L38.2298 51.027ZM49.9701 56.1938C49.1181 54.2243 48.9673 52.0223 49.5431 49.9551L45.9308 48.9488C45.1245 51.8428 45.3354 54.9257 46.5285 57.6829L49.9701 56.1938Z" fill="#5B75FF"/>
</g>
<defs>
<clipPath id="clip0_13_17912">
<rect width="90" height="90" fill="white" transform="translate(0 0.143066)"/>
</clipPath>
</defs>
</svg>
