<svg width="90" height="91" viewBox="0 0 90 91" fill="none" xmlns="http://www.w3.org/2000/svg">
<path fill-rule="evenodd" clip-rule="evenodd" d="M43.125 13.7025V78.2968L63.75 71.4217V20.5775L43.125 13.7025ZM41.8429 9.32226C40.6288 8.91756 39.375 9.82126 39.375 11.101V80.8981C39.375 82.178 40.6288 83.0818 41.8429 82.6769L66.2179 74.552C66.9836 74.2968 67.5 73.5802 67.5 72.7732V19.2261C67.5 18.419 66.9836 17.7025 66.2179 17.4473L41.8429 9.32226Z" fill="#5B75FF"/>
<path d="M50.625 44.125C50.625 46.1959 49.7856 47.875 48.75 47.875C47.7144 47.875 46.875 46.1959 46.875 44.125C46.875 42.0539 47.7144 40.375 48.75 40.375C49.7856 40.375 50.625 42.0539 50.625 44.125Z" fill="#5B75FF"/>
<path fill-rule="evenodd" clip-rule="evenodd" d="M39.375 16H22.5V74.1251H39.375V70.3751H26.25V19.7501H39.375V16Z" fill="#5B75FF"/>
</svg>
